<svg viewBox="0 0 780 580" xmlns="http://www.w3.org/2000/svg" style="background:#fff;font-family:Inter,Arial,sans-serif">
<defs><marker id="a" markerWidth="8" markerHeight="6" refX="7" refY="3" orient="auto"><path d="M0,0 L8,3 L0,6 Z" fill="#0B64DD"/></marker></defs>
<rect x="0" y="0" width="780" height="36" fill="#101C3F"/>
<text x="390" y="23" text-anchor="middle" font-size="13" font-weight="bold" fill="white">Apex Conglomerate — Production Network Topology (Frankfurt Datacenter)</text>
<!-- Internet -->
<rect x="310" y="48" width="160" height="32" rx="6" fill="#F5F7FA" stroke="#888" stroke-width="1.5"/>
<text x="390" y="68" text-anchor="middle" font-size="11" font-weight="bold" fill="#555">INTERNET</text>
<!-- DMZ / VLAN 100 -->
<rect x="20" y="98" width="740" height="68" rx="8" fill="#FFF8E1" stroke="#FEC514" stroke-width="2"/>
<text x="30" y="116" font-size="10" font-weight="bold" fill="#B8860B">DMZ — VLAN 100 (Frontend Tier)</text>
<rect x="100" y="122" width="140" height="32" rx="4" fill="white" stroke="#FEC514" stroke-width="1.5"/>
<text x="170" y="138" text-anchor="middle" font-size="9" font-weight="bold" fill="#B8860B">HAProxy LB</text>
<text x="170" y="150" text-anchor="middle" font-size="8" fill="#888">Kibana · API GW</text>
<rect x="280" y="122" width="140" height="32" rx="4" fill="white" stroke="#FEC514" stroke-width="1.5"/>
<text x="350" y="138" text-anchor="middle" font-size="9" font-weight="bold" fill="#B8860B">F5 BIG-IP</text>
<text x="350" y="150" text-anchor="middle" font-size="8" fill="#888">ApexPay API</text>
<rect x="460" y="122" width="140" height="32" rx="4" fill="white" stroke="#FEC514" stroke-width="1.5"/>
<text x="530" y="138" text-anchor="middle" font-size="9" font-weight="bold" fill="#B8860B">Cloudflare WAF</text>
<text x="530" y="150" text-anchor="middle" font-size="8" fill="#888">DDoS · Rate limiting</text>
<!-- App tier / VLAN 200 -->
<rect x="20" y="184" width="740" height="88" rx="8" fill="#E8F0FE" stroke="#0B64DD" stroke-width="2"/>
<text x="30" y="202" font-size="10" font-weight="bold" fill="#0B64DD">Application Tier — VLAN 200</text>
<rect x="40" y="210" width="120" height="50" rx="4" fill="white" stroke="#0B64DD" stroke-width="1.5"/>
<text x="100" y="229" text-anchor="middle" font-size="9" font-weight="bold" fill="#0B64DD">AFDS Scoring</text>
<text x="100" y="242" text-anchor="middle" font-size="8" fill="#555">6x Python pods</text>
<text x="100" y="253" text-anchor="middle" font-size="8" fill="#888">VLAN200:8080</text>
<rect x="180" y="210" width="120" height="50" rx="4" fill="white" stroke="#0B64DD" stroke-width="1.5"/>
<text x="240" y="229" text-anchor="middle" font-size="9" font-weight="bold" fill="#0B64DD">Maya Agent</text>
<text x="240" y="242" text-anchor="middle" font-size="8" fill="#555">Agent Builder</text>
<text x="240" y="253" text-anchor="middle" font-size="8" fill="#888">VLAN200:8443</text>
<rect x="320" y="210" width="120" height="50" rx="4" fill="white" stroke="#0B64DD" stroke-width="1.5"/>
<text x="380" y="229" text-anchor="middle" font-size="9" font-weight="bold" fill="#0B64DD">Logstash (3x)</text>
<text x="380" y="242" text-anchor="middle" font-size="8" fill="#555">Pipelines</text>
<text x="380" y="253" text-anchor="middle" font-size="8" fill="#888">VLAN200:5044</text>
<rect x="460" y="210" width="120" height="50" rx="4" fill="white" stroke="#0B64DD" stroke-width="1.5"/>
<text x="520" y="229" text-anchor="middle" font-size="9" font-weight="bold" fill="#0B64DD">ES Coordinating</text>
<text x="520" y="242" text-anchor="middle" font-size="8" fill="#555">2x nodes</text>
<text x="520" y="253" text-anchor="middle" font-size="8" fill="#888">VLAN200:9200</text>
<rect x="600" y="210" width="120" height="50" rx="4" fill="white" stroke="#0B64DD" stroke-width="1.5"/>
<text x="660" y="229" text-anchor="middle" font-size="9" font-weight="bold" fill="#0B64DD">Vault Agent</text>
<text x="660" y="242" text-anchor="middle" font-size="8" fill="#555">Sidecar injector</text>
<text x="660" y="253" text-anchor="middle" font-size="8" fill="#888">VLAN200:8200</text>
<!-- Data tier / VLAN 300 -->
<rect x="20" y="290" width="740" height="88" rx="8" fill="#E1F5EE" stroke="#0F6E56" stroke-width="2"/>
<text x="30" y="308" font-size="10" font-weight="bold" fill="#0F6E56">Data Tier — VLAN 300 (Isolated)</text>
<rect x="40" y="314" width="130" height="52" rx="4" fill="white" stroke="#0F6E56" stroke-width="1.5"/>
<text x="105" y="333" text-anchor="middle" font-size="9" font-weight="bold" fill="#0F6E56">ES Hot Nodes (6x)</text>
<text x="105" y="346" text-anchor="middle" font-size="8" fill="#555">4TB NVMe · 64GB</text>
<text x="105" y="358" text-anchor="middle" font-size="8" fill="#888">TCP 9200/9300</text>
<rect x="190" y="314" width="130" height="52" rx="4" fill="white" stroke="#0F6E56" stroke-width="1.5"/>
<text x="255" y="333" text-anchor="middle" font-size="9" font-weight="bold" fill="#0F6E56">ES Warm (2x)</text>
<text x="255" y="346" text-anchor="middle" font-size="8" fill="#555">16TB HDD · 32GB</text>
<text x="255" y="358" text-anchor="middle" font-size="8" fill="#888">ILM: 30-90d</text>
<rect x="340" y="314" width="130" height="52" rx="4" fill="white" stroke="#0F6E56" stroke-width="1.5"/>
<text x="405" y="333" text-anchor="middle" font-size="9" font-weight="bold" fill="#0F6E56">ES ML GPU (2x)</text>
<text x="405" y="346" text-anchor="middle" font-size="8" fill="#555">A100 40GB · 128GB</text>
<text x="405" y="358" text-anchor="middle" font-size="8" fill="#888">Inference API</text>
<rect x="490" y="314" width="130" height="52" rx="4" fill="white" stroke="#0F6E56" stroke-width="1.5"/>
<text x="555" y="333" text-anchor="middle" font-size="9" font-weight="bold" fill="#0F6E56">Kafka (3x)</text>
<text x="555" y="346" text-anchor="middle" font-size="8" fill="#555">4TB NVMe each</text>
<text x="555" y="358" text-anchor="middle" font-size="8" fill="#888">TCP 9092 SASL/SSL</text>
<rect x="640" y="314" width="100" height="52" rx="4" fill="white" stroke="#0F6E56" stroke-width="1.5"/>
<text x="690" y="333" text-anchor="middle" font-size="9" font-weight="bold" fill="#0F6E56">MinIO S3</text>
<text x="690" y="346" text-anchor="middle" font-size="8" fill="#555">Snapshots</text>
<text x="690" y="358" text-anchor="middle" font-size="8" fill="#888">Audit logs</text>
<!-- IoT / VLAN 400 -->
<rect x="20" y="396" width="360" height="60" rx="8" fill="#FBEAF0" stroke="#F04E98" stroke-width="2"/>
<text x="30" y="414" font-size="10" font-weight="bold" fill="#F04E98">IoT — VLAN 400 (Isolated)</text>
<rect x="40" y="420" width="140" height="28" rx="4" fill="white" stroke="#F04E98" stroke-width="1"/>
<text x="110" y="435" text-anchor="middle" font-size="9" font-weight="bold" fill="#F04E98">MQTT Mosquitto (3x)</text>
<rect x="200" y="420" width="140" height="28" rx="4" fill="white" stroke="#F04E98" stroke-width="1"/>
<text x="270" y="435" text-anchor="middle" font-size="9" font-weight="bold" fill="#F04E98">100x IoT Edge Nodes</text>
<!-- K8s / VLAN 500 -->
<rect x="400" y="396" width="360" height="60" rx="8" fill="#F5F7FA" stroke="#888" stroke-width="2"/>
<text x="410" y="414" font-size="10" font-weight="bold" fill="#555">Kubernetes — VLAN 500</text>
<rect x="420" y="420" width="140" height="28" rx="4" fill="white" stroke="#888" stroke-width="1"/>
<text x="490" y="435" text-anchor="middle" font-size="9" font-weight="bold" fill="#555">k8s-es-prod</text>
<rect x="580" y="420" width="140" height="28" rx="4" fill="white" stroke="#888" stroke-width="1"/>
<text x="650" y="435" text-anchor="middle" font-size="9" font-weight="bold" fill="#555">k8s-infra</text>
<!-- Corporate / VLAN 600 -->
<rect x="20" y="474" width="740" height="50" rx="8" fill="#F5F7FA" stroke="#ccc" stroke-width="1.5"/>
<text x="30" y="492" font-size="10" font-weight="bold" fill="#888">Corporate — VLAN 600 (No data tier access)</text>
<text x="30" y="510" font-size="9" fill="#aaa">Workstations · VDI · Azure AD SSO → Kibana only (via HAProxy / VLAN 100) · No direct ES API access</text>
<!-- Inter-tier arrows -->
<line x1="390" y1="80" x2="390" y2="98" stroke="#888" stroke-width="1.5" marker-end="url(#a)"/>
<line x1="170" y1="154" x2="170" y2="210" stroke="#FEC514" stroke-width="1.5" marker-end="url(#a)"/>
<line x1="520" y1="260" x2="520" y2="290" stroke="#0B64DD" stroke-width="1.5" marker-end="url(#a)"/>
<line x1="270" y1="456" x2="380" y2="290" stroke="#F04E98" stroke-width="1" stroke-dasharray="4,3" marker-end="url(#a)"/>
<!-- Firewall labels -->
<rect x="340" y="172" width="100" height="16" rx="3" fill="#CC0000"/>
<text x="390" y="183" text-anchor="middle" font-size="8" font-weight="bold" fill="white">FIREWALL (Cisco ASA)</text>
<rect x="340" y="278" width="100" height="16" rx="3" fill="#CC0000"/>
<text x="390" y="289" text-anchor="middle" font-size="8" font-weight="bold" fill="white">FIREWALL (strict whitelist)</text>
</svg>